name D:\school\WTK\thesis\model\3dpredictsim\Results\MidTarsalJoint\Fal_s1_bCst_PF_Natali2010_ls150_MT_k300_MTP_T5_ig23.mot
datacolumns 128
datarows 4
range 1.70916211 1.74334535
endheader
time	pelvis_tilt	pelvis_list	pelvis_rotation	pelvis_tx	pelvis_ty	pelvis_tz	hip_flexion_l	hip_adduction_l	hip_rotation_l	hip_flexion_r	hip_adduction_r	hip_rotation_r	knee_angle_l	knee_angle_r	ankle_angle_l	ankle_angle_r	subtalar_angle_l	subtalar_angle_r	mtj_angle_l	mtj_angle_r	mtp_angle_l	mtp_angle_r	lumbar_extension	lumbar_bending	lumbar_rotation	arm_flex_l	arm_add_l	arm_rot_l	arm_flex_r	arm_add_r	arm_rot_r	elbow_flex_l	elbow_flex_r	pro_sup_l	pro_sup_r	glut_med1_l/activation	glut_med2_l/activation	glut_med3_l/activation	glut_min1_l/activation	glut_min2_l/activation	glut_min3_l/activation	semimem_l/activation	semiten_l/activation	bifemlh_l/activation	bifemsh_l/activation	sar_l/activation	add_long_l/activation	add_brev_l/activation	add_mag1_l/activation	add_mag2_l/activation	add_mag3_l/activation	tfl_l/activation	pect_l/activation	grac_l/activation	glut_max1_l/activation	glut_max2_l/activation	glut_max3_l/activation	iliacus_l/activation	psoas_l/activation	quad_fem_l/activation	gem_l/activation	peri_l/activation	rect_fem_l/activation	vas_med_l/activation	vas_int_l/activation	vas_lat_l/activation	med_gas_l/activation	lat_gas_l/activation	soleus_l/activation	tib_post_l/activation	flex_dig_l/activation	flex_hal_l/activation	tib_ant_l/activation	per_brev_l/activation	per_long_l/activation	per_tert_l/activation	ext_dig_l/activation	ext_hal_l/activation	ercspn_l/activation	intobl_l/activation	extobl_l/activation	glut_med1_r/activation	glut_med2_r/activation	glut_med3_r/activation	glut_min1_r/activation	glut_min2_r/activation	glut_min3_r/activation	semimem_r/activation	semiten_r/activation	bifemlh_r/activation	bifemsh_r/activation	sar_r/activation	add_long_r/activation	add_brev_r/activation	add_mag1_r/activation	add_mag2_r/activation	add_mag3_r/activation	tfl_r/activation	pect_r/activation	grac_r/activation	glut_max1_r/activation	glut_max2_r/activation	glut_max3_r/activation	iliacus_r/activation	psoas_r/activation	quad_fem_r/activation	gem_r/activation	peri_r/activation	rect_fem_r/activation	vas_med_r/activation	vas_int_r/activation	vas_lat_r/activation	med_gas_r/activation	lat_gas_r/activation	soleus_r/activation	tib_post_r/activation	flex_dig_r/activation	flex_hal_r/activation	tib_ant_r/activation	per_brev_r/activation	per_long_r/activation	per_tert_r/activation	ext_dig_r/activation	ext_hal_r/activation	ercspn_r/activation	intobl_r/activation	extobl_r/activation	
          1.70916211	         -2.93017646	          2.07100704	         -5.45368037	          2.13645263	          0.91940042	          0.00199442	         29.07435664	          3.27456814	         -3.04384082	        -16.74817459	         -0.99874594	          7.00946205	        -10.60065154	         -8.46614331	          5.18148523	         -2.41360984	         -3.05800713	          9.22695092	         -0.16715680	          4.20148301	          0.72161395	         13.67712146	         -2.11071403	         -0.32227681	          2.09078121	         -4.73919519	        -13.45221939	          7.50941463	          5.16713348	        -13.45777711	         17.11642718	         15.89019086	         34.52045290	         86.51662706	         86.51662706	          0.05949533	          0.05949533	          0.05000017	          0.05949541	          0.05949539	          0.05945958	          0.16018447	          0.08046339	          0.19179829	          0.05949603	          0.05000020	          0.16886770	          0.32236086	          0.10989377	          0.21155593	          0.10552686	          0.05000019	          0.05005011	          0.14305299	          0.05000072	          0.05000209	          0.13914506	          0.05949529	          0.05000145	          0.31810023	          0.28751672	          0.13120968	          0.05000051	          0.11613964	          0.11342279	          0.10342747	          0.06672160	          0.06854988	          0.06289221	          0.05000005	          0.05949790	          0.05000040	          0.49582951	          0.24875064	          0.15676182	          0.15732461	          0.45984704	          0.21641344	          0.05758155	          0.11285733	          0.09799220	          0.25771205	          0.10023413	          0.07079282	          0.28993025	          0.19384201	          0.10026208	          0.05000161	          0.05000028	          0.05000017	          0.05424661	          0.10847516	          0.09692599	          0.07117073	          0.05000226	          0.05000345	          0.05000116	          0.30923637	          0.09593684	          0.05000148	          0.05000149	          0.05000098	          0.05000111	          0.39810230	          0.62737271	          0.05000019	          0.05000057	          0.05000052	          0.24762040	          0.05002048	          0.05002076	          0.05008458	          0.26978235	          0.36870302	          0.32698394	          0.26501489	          0.24645624	          0.32803472	          0.05000004	          0.05949505	          0.11646193	          0.05000027	          0.05000007	          0.05000027	          0.05000002	          0.05000042	          0.06388263	
          1.72055652	         -2.92782183	          2.15139367	         -5.71793242	          2.15375706	          0.91855448	          0.00179681	         28.41760440	          3.65616350	         -2.81086146	        -16.62377244	         -1.29345362	          6.83393514	        -10.97906917	        -10.36447743	          4.49850037	         -3.00195801	         -3.42588410	         10.26366735	         -0.24081686	          3.29361963	          0.71257266	         15.46280067	         -1.90526345	         -0.52028828	          2.16234186	         -5.64106315	        -13.44999907	          7.24977538	          4.83019488	        -13.47010017	         17.37711502	         15.53544018	         35.72912272	         86.51662706	         86.51662706	          0.05000001	          0.05000005	          0.11437416	          0.05000008	          0.05000008	          0.05000007	          0.13461953	          0.06762168	          0.16118769	          0.05000082	          0.05950344	          0.14191688	          0.31775871	          0.34769340	          0.21964217	          0.11038661	          0.05000039	          0.07619251	          0.15204429	          0.05001202	          0.09668594	          0.13561670	          0.05000019	          0.05949566	          0.56705124	          0.24162965	          0.11026895	          0.05949576	          0.11943062	          0.12460585	          0.10416759	          0.06587155	          0.07079300	          0.05949611	          0.05926553	          0.05000251	          0.05948868	          0.49727396	          0.30554979	          0.19823828	          0.13221601	          0.41696231	          0.18187435	          0.05000000	          0.09484552	          0.08235284	          0.21658175	          0.08423700	          0.05949497	          0.24365805	          0.16290527	          0.08426050	          0.05000315	          0.05000108	          0.05000237	          0.05000011	          0.09116294	          0.19024011	          0.05981302	          0.05950034	          0.05949674	          0.05949598	          0.25988301	          0.08429125	          0.05106593	          0.05002925	          0.05340666	          0.05949566	          0.33456602	          0.58392847	          0.05949579	          0.05949653	          0.05231518	          0.20810070	          0.13907646	          0.13580553	          0.12804533	          0.22672560	          0.30985875	          0.27479795	          0.22271920	          0.20712270	          0.27568141	          0.05000002	          0.05000016	          0.13399890	          0.05000010	          0.05000003	          0.05000015	          0.06563367	          0.07079379	          0.06086784	
          1.73195094	         -2.92064579	          2.23838774	         -5.95094936	          2.17137076	          0.91771056	          0.00162362	         27.62508296	          3.92428106	         -2.54643832	        -16.43515090	         -1.58899251	          6.64687036	        -11.47388530	        -12.35854433	          3.95609781	         -3.73428943	         -3.81438376	         11.25680175	         -0.35004115	          2.25349342	          0.71907907	         17.31190349	         -1.67760166	         -0.73200596	          2.22199290	         -6.56883210	        -13.45762924	          7.05126098	          4.40450366	        -13.48033212	         17.54469163	         15.22547516	         36.94250831	         86.51662706	         86.51662706	          0.24971808	          0.25927418	          0.31553754	          0.43028342	          0.26157176	          0.23651203	          0.11521690	          0.05683220	          0.13546278	          0.05950718	          0.05000712	          0.11926726	          0.26704508	          0.29220231	          0.18458796	          0.12166495	          0.05000052	          0.06403300	          0.12777868	          0.05000040	          0.11654882	          0.11397288	          0.05107692	          0.05000072	          0.47655097	          0.20306614	          0.21996683	          0.05000041	          0.10036990	          0.10471919	          0.08754280	          0.05535862	          0.05949465	          0.05000069	          0.05000008	          0.05000039	          0.05000049	          0.55395567	          0.31270755	          0.16659995	          0.38575417	          0.49445436	          0.15284832	          0.06533724	          0.11661246	          0.06920950	          0.32173641	          0.07079299	          0.05000021	          0.32623078	          0.13690611	          0.07081275	          0.05000171	          0.05000021	          0.05000014	          0.05000101	          0.07662389	          0.15987824	          0.05026712	          0.05000432	          0.05000157	          0.05000071	          0.27250194	          0.07084399	          0.05000108	          0.05000199	          0.05000098	          0.05000078	          0.28117023	          0.55305706	          0.05000047	          0.05000141	          0.05000025	          0.17488825	          0.11688020	          0.11413130	          0.10760961	          0.19054063	          0.26040589	          0.23094071	          0.18717368	          0.17406646	          0.23168330	          0.05000161	          0.06635097	          0.16218881	          0.05000056	          0.08524012	          0.05000058	          0.05829760	          0.05949524	          0.05115347	
          1.74334535	         -2.91075420	          2.32028604	         -6.14790272	          2.18906839	          0.91690074	          0.00142496	         26.78432048	          4.16240169	         -2.28067489	        -16.14010539	         -1.87362628	          6.47234632	        -11.93218684	        -14.49970919	          3.54182057	         -4.60601032	         -4.20521120	         12.21971060	         -0.29207080	          1.12685315	          0.74034525	         19.09950937	         -1.45210315	         -0.94446868	          2.27091165	         -7.47402058	        -13.46684797	          6.91644154	          3.93041757	        -13.49782562	         17.64878418	         14.93614214	         38.13710310	         86.51662706	         86.51662706	          0.35164490	          0.34897745	          0.37064815	          0.36161120	          0.21982628	          0.21672624	          0.10218241	          0.08336678	          0.11429204	          0.05001033	          0.05000101	          0.10023246	          0.22442525	          0.24556764	          0.15512907	          0.15832663	          0.05000038	          0.05381392	          0.10738580	          0.21616880	          0.17996195	          0.15055290	          0.05000009	          0.05000011	          0.40049439	          0.17065724	          0.18486087	          0.05000009	          0.13231481	          0.14184734	          0.10689929	          0.05000005	          0.05000009	          0.05000001	          0.05000003	          0.05000015	          0.05000016	          0.61935139	          0.28050126	          0.14867846	          0.55460392	          0.53063549	          0.28038473	          0.08120806	          0.09800134	          0.05816381	          0.27038803	          0.05949462	          0.05000011	          0.27416512	          0.11505624	          0.05951123	          0.05000227	          0.05000024	          0.05000023	          0.05000014	          0.06439508	          0.15725890	          0.13271742	          0.05001016	          0.05000740	          0.05001545	          0.22901155	          0.05957107	          0.05000090	          0.05000232	          0.05000155	          0.05000124	          0.23629602	          0.49094520	          0.05000019	          0.05000071	          0.05000021	          0.14697644	          0.11927055	          0.11927044	          0.10861958	          0.16013071	          0.21884562	          0.19408301	          0.15730116	          0.14628592	          0.19470719	          0.10779399	          0.12847511	          0.13630461	          0.05000159	          0.15564886	          0.05000397	          0.07860182	          0.05000002	          0.05000004	
